<?xml version="1.0" encoding="UTF-8" standalone="no"?>
<!DOCTYPE svg PUBLIC "-//W3C//DTD SVG 1.0//EN" "http://www.w3.org/TR/2001/PR-SVG-20010719/DTD/svg10.dtd">
<svg width="28cm" height="13cm" viewBox="220 79 550 255" xmlns="http://www.w3.org/2000/svg" xmlns:xlink="http://www.w3.org/1999/xlink">
  <defs/>
  <g id="Background">
    <rect style="fill: #ffffff; fill-opacity: 1; stroke-opacity: 1; stroke-width: 2; stroke: #545454" x="456.332" y="136.698" width="134.923" height="196.302" rx="0" ry="0"/>
    <g>
      <ellipse style="fill: #208753; fill-opacity: 1; stroke-opacity: 1; stroke-width: 2; stroke: #208753" cx="261.09" cy="98.5006" rx="6" ry="6"/>
      <line style="fill: none; stroke-opacity: 1; stroke-width: 2; stroke: #208753" x1="237.09" y1="110.501" x2="285.09" y2="110.501"/>
      <line style="fill: none; stroke-opacity: 1; stroke-width: 2; stroke: #208753" x1="261.09" y1="104.501" x2="261.09" y2="134.501"/>
      <line style="fill: none; stroke-opacity: 1; stroke-width: 2; stroke: #208753" x1="261.09" y1="134.501" x2="237.09" y2="160.501"/>
      <line style="fill: none; stroke-opacity: 1; stroke-width: 2; stroke: #208753" x1="261.09" y1="134.501" x2="285.09" y2="160.501"/>
      <text font-size="1.6" style="fill: #000000; fill-opacity: 1; stroke: none;text-anchor:middle;font-family:sans-serif;font-style:normal;font-weight:normal" x="261.09" y="174.001">
        <tspan x="261.09" y="174.001"></tspan>
      </text>
    </g>
    <g>
      <rect style="fill: #ffffff; fill-opacity: 1; stroke-opacity: 1; stroke-width: 2; stroke: #204a87" x="221.09" y="214.954" width="80" height="36" rx="10" ry="10"/>
      <text font-size="12.8" style="fill: #000000; fill-opacity: 1; stroke: none;text-anchor:middle;font-family:sans-serif;font-style:normal;font-weight:normal" x="261.09" y="236.854">
        <tspan x="261.09" y="236.854">Python</tspan>
      </text>
    </g>
    <g>
      <rect style="fill: #ffffff; fill-opacity: 1; stroke-opacity: 1; stroke-width: 2; stroke: #204a87" x="338" y="216.562" width="86.95" height="36" rx="10" ry="10"/>
      <text font-size="12.8" style="fill: #000000; fill-opacity: 1; stroke: none;text-anchor:middle;font-family:sans-serif;font-style:normal;font-weight:normal" x="381.475" y="238.462">
        <tspan x="381.475" y="238.462">PyGObject</tspan>
      </text>
    </g>
    <g>
      <rect style="fill: #ffffff; fill-opacity: 1; stroke-opacity: 1; stroke-width: 2; stroke: #204a87" x="468.08" y="147.249" width="111.7" height="36" rx="10" ry="10"/>
      <text font-size="12.8" style="fill: #000000; fill-opacity: 1; stroke: none;text-anchor:middle;font-family:sans-serif;font-style:normal;font-weight:normal" x="523.93" y="169.149">
        <tspan x="523.93" y="169.149">libgirepository</tspan>
      </text>
    </g>
    <g>
      <polygon style="fill: #ffffff; fill-opacity: 1; stroke-opacity: 1; stroke-width: 2; stroke: #204a87" fill-rule="evenodd" points="639.082,182.662 649.082,172.662 769.082,172.662 769.082,208.662 759.082,218.662 639.082,218.662 639.082,182.662 "/>
      <line style="fill: none; stroke-opacity: 1; stroke-width: 2; stroke: #204a87" x1="639.082" y1="182.662" x2="759.082" y2="182.662"/>
      <line style="fill: none; stroke-opacity: 1; stroke-width: 2; stroke: #204a87" x1="759.082" y1="182.662" x2="769.082" y2="172.662"/>
      <line style="fill: none; stroke-opacity: 1; stroke-width: 2; stroke: #204a87" x1="759.082" y1="182.662" x2="759.082" y2="218.662"/>
      <text font-size="12.8" style="fill: #000000; fill-opacity: 1; stroke: none;text-anchor:start;font-family:sans-serif;font-style:normal;font-weight:normal" x="649.082" y="204.562">
        <tspan x="649.082" y="204.562">Gtk-3.0.typelib</tspan>
      </text>
      <line style="fill: none; stroke-opacity: 1; stroke-width: 1; stroke: #000000" x1="649.082" y1="207.562" x2="744.282" y2="207.562"/>
    </g>
    <g>
      <polygon style="fill: #ffffff; fill-opacity: 1; stroke-opacity: 1; stroke-width: 2; stroke: #204a87" fill-rule="evenodd" points="639.028,252.664 649.028,242.664 769.028,242.664 769.028,278.664 759.028,288.664 639.028,288.664 639.028,252.664 "/>
      <line style="fill: none; stroke-opacity: 1; stroke-width: 2; stroke: #204a87" x1="639.028" y1="252.664" x2="759.028" y2="252.664"/>
      <line style="fill: none; stroke-opacity: 1; stroke-width: 2; stroke: #204a87" x1="759.028" y1="252.664" x2="769.028" y2="242.664"/>
      <line style="fill: none; stroke-opacity: 1; stroke-width: 2; stroke: #204a87" x1="759.028" y1="252.664" x2="759.028" y2="288.664"/>
      <text font-size="12.8" style="fill: #000000; fill-opacity: 1; stroke: none;text-anchor:start;font-family:sans-serif;font-style:normal;font-weight:normal" x="649.028" y="274.564">
        <tspan x="649.028" y="274.564">libgtk-3.so</tspan>
      </text>
      <line style="fill: none; stroke-opacity: 1; stroke-width: 1; stroke: #000000" x1="649.028" y1="277.564" x2="716.128" y2="277.564"/>
    </g>
    <g>
      <rect style="fill: #ffffff; fill-opacity: 1; stroke-opacity: 1; stroke-width: 2; stroke: #204a87" x="483.752" y="192.25" width="80" height="36" rx="10" ry="10"/>
      <text font-size="12.8" style="fill: #000000; fill-opacity: 1; stroke: none;text-anchor:middle;font-family:sans-serif;font-style:normal;font-weight:normal" x="523.752" y="214.15">
        <tspan x="523.752" y="214.15">libglib</tspan>
      </text>
    </g>
    <g>
      <rect style="fill: #ffffff; fill-opacity: 1; stroke-opacity: 1; stroke-width: 2; stroke: #204a87" x="483.834" y="238.25" width="82.9" height="36" rx="10" ry="10"/>
      <text font-size="12.8" style="fill: #000000; fill-opacity: 1; stroke: none;text-anchor:middle;font-family:sans-serif;font-style:normal;font-weight:normal" x="525.284" y="260.15">
        <tspan x="525.284" y="260.15">libgobject</tspan>
      </text>
    </g>
    <g>
      <line style="fill: none; stroke-opacity: 1; stroke-width: 2; stroke: #545454" x1="261.09" y1="174.501" x2="261.09" y2="210.482"/>
      <polyline style="fill: none; stroke-opacity: 1; stroke-width: 2; stroke: #545454" points="256.09,202.718 261.09,212.718 266.09,202.718 "/>
    </g>
    <g>
      <line style="fill: none; stroke-opacity: 1; stroke-width: 2; stroke: #545454" x1="301.09" y1="232.954" x2="332.523" y2="233.583"/>
      <polyline style="fill: none; stroke-opacity: 1; stroke-width: 2; stroke: #545454" points="324.661,238.427 334.759,233.628 324.861,228.429 "/>
    </g>
    <g>
      <line style="fill: none; stroke-opacity: 1; stroke-width: 2; stroke: #545454" x1="424.95" y1="234.562" x2="451.86" y2="234.807"/>
      <polyline style="fill: none; stroke-opacity: 1; stroke-width: 2; stroke: #545454" points="444.051,239.736 454.096,234.828 444.142,229.737 "/>
    </g>
    <g>
      <polyline style="fill: none; stroke-opacity: 1; stroke-width: 2; stroke: #545454" points="591.256,234.848 615.096,234.848 615.096,200.662 634.61,200.662 "/>
      <polyline style="fill: none; stroke-opacity: 1; stroke-width: 2; stroke: #545454" points="626.846,205.662 636.846,200.662 626.846,195.662 "/>
    </g>
    <g>
      <polyline style="fill: none; stroke-opacity: 1; stroke-width: 2; stroke: #545454" points="591.256,234.848 615.096,234.848 615.096,270.664 634.556,270.664 "/>
      <polyline style="fill: none; stroke-opacity: 1; stroke-width: 2; stroke: #545454" points="626.792,275.664 636.792,270.664 626.792,265.664 "/>
    </g>
    <g>
      <rect style="fill: #ffffff; fill-opacity: 1; stroke-opacity: 1; stroke-width: 2; stroke: #204a87" x="484" y="285.9" width="80" height="36" rx="10" ry="10"/>
      <text font-size="12.8" style="fill: #000000; fill-opacity: 1; stroke: none;text-anchor:middle;font-family:sans-serif;font-style:normal;font-weight:normal" x="524" y="307.8">
        <tspan x="524" y="307.8">libffi</tspan>
      </text>
    </g>
  </g>
</svg>
